<svg xmlns="http://www.w3.org/2000/svg" width="400" height="400"><g fill-rule="evenodd"><path d="M212.2 76.028c-4.84.166-9.79.421-11 .566-1.21.145-4.36.429-7 .63-2.64.201-6.24.555-8 .786-1.76.232-5.27.684-7.8 1.004-2.53.321-5.59.751-6.8.954-4.319.727-13.428 2.425-15 2.796a677.527 677.527 0 01-8.8 2.013c-2.052.443-7.701 1.946-9 2.395-.55.19-2.35.737-4 1.216-1.65.48-5.401 1.673-8.337 2.652-4.79 1.598-7.159 2.5-11.663 4.439-.77.331-1.76.747-2.2.924-2.773 1.113-14.052 6.835-16.304 8.272-1.487.949-2.804 1.725-2.926 1.725-.379 0-8.221 5.646-11.365 8.183-7.75 6.254-17.686 18.23-21.088 25.417-4.973 10.507-7.096 18.063-8.148 29-.498 5.181-.295 11.9.442 14.674 1.545 5.806 1.84 6.537 4.499 11.126 3.18 5.489 9.704 9.586 19.86 12.472 2.501.71 15.5.695 18.63-.022 17.062-3.909 30.149-14.407 33.961-27.243l.627-2.111-1.694.282c-.932.155-2.594.435-3.694.623-16.541 2.818-26.433-9.762-23.433-29.801 2.924-19.542 21.898-40.482 47.833-52.791 4.16-1.974 4.682-2.2 7-3.029.77-.275 1.94-.722 2.6-.993 1.562-.643 10.107-3.278 11.4-3.516.55-.101 2.44-.476 4.2-.832 2.688-.545 14.389-1.832 16.7-1.837 1.086-.003.88.545-1.778 4.712-3.004 4.71-9.495 15.751-10.399 17.686-3.08 6.599-3.768 8.453-7.129 19.2a837.94 837.94 0 01-2.793 8.8c-.714 2.156-1.784 5.609-3.593 11.6a779.29 779.29 0 01-1.405 4.6c-.274.88-.806 2.68-1.183 4-.376 1.32-.829 2.85-1.006 3.4-.176.55-.543 1.81-.814 2.8-.271.99-.638 2.25-.814 2.8-.177.55-.632 2.08-1.01 3.4-.379 1.32-1.093 3.75-1.587 5.4-.495 1.65-1.293 4.35-1.775 6-.482 1.65-1.314 4.44-1.849 6.2a265.71 265.71 0 00-1.36 4.6c-.214.77-.771 2.66-1.239 4.2-.467 1.54-.998 3.34-1.18 4-.182.66-.625 2.19-.986 3.4-.894 2.999-1.287 4.353-1.742 6-.213.77-1.319 4.64-2.458 8.6-1.139 3.96-2.22 7.74-2.401 8.4-.181.66-.635 2.28-1.007 3.6a489.46 489.46 0 00-1.058 3.8c-.671 2.477-1.006 3.663-3.281 11.6-2.874 10.029-2.863 9.991-4.03 14-.544 1.87-1.439 5.11-1.988 7.2-.549 2.09-1.288 4.88-1.643 6.2-1.497 5.565-5.401 20.567-5.778 22.2-.177.77-.627 2.57-.999 4-2.246 8.64-3.095 16.054-2.206 19.257.635 2.286 1.201 2.533 5.951 2.599 2.332.033 7.13.186 10.662.341 10.424.457 22.503-.76 26.249-2.644 1.639-.824 1.781-1.129 2.118-4.553.311-3.151.934-8.157 1.42-11.4 2.011-13.412 2.224-14.659 4.037-23.6 1.499-7.392 2.624-12.229 4.979-21.4.79-3.08 1.578-6.23 1.75-7 .172-.77.892-3.56 1.601-6.2l2.094-7.8c.442-1.65.952-3.54 1.132-4.2 1.3-4.752 1.755-6.486 3.204-12.2.195-.77.649-2.75 1.007-4.4 2.457-11.305 9.753-13.752 17.935-6.014 2.847 2.693 8.652 12.441 8.652 14.529 0 .289.152.696.337.905.4.45 1.442 3.968 2.008 6.78 1.137 5.647 1.255 7.703 1.255 21.887 0 16.83.426 22.175 2.478 31.113.537 2.338 1.54 5.983 1.925 7 8.246 21.743 22.118 29.882 45.397 26.636 5.616-.783 15.842-3.492 19.6-5.192 2.456-1.111 3.752-1.644 4.001-1.644.451 0 11.349-5.511 12.526-6.335.59-.413 1.883-1.201 2.873-1.752 13.133-7.309 18.574-12.397 16.801-15.711-1.071-2.001-3.87-1.768-9.395.781-1.543.713-3.526 1.528-4.406 1.812-.88.284-2.05.666-2.6.849-4.576 1.521-16.47 1.902-20.8.666-9.61-2.742-20.449-15.548-26.84-31.71-.174-.44-.67-1.61-1.102-2.6-.881-2.02-2.83-7.376-3.129-8.6a11.99 11.99 0 00-.545-1.6c-.193-.44-.825-2.42-1.406-4.4-4.475-15.253-8.087-21.732-17.175-30.8-6.759-6.745-6.292-7.876 5.197-12.594 2.86-1.174 6.28-2.622 7.6-3.218l4.4-1.98c9.231-4.146 24.74-13.332 27-15.992.11-.13 1.19-1.011 2.4-1.958 10.877-8.517 20.189-22.563 22.975-34.658l1.013-4.4c.455-1.977 1.004-8.506.943-11.2-.399-17.547-7.125-29.793-20.841-37.948-16.483-9.8-37.211-13.099-74.29-11.824m30.6 9.07c2.623 1.08 6.031 2.818 6.4 3.265.11.133.92.759 1.8 1.391 6.111 4.391 11.365 12.141 13.32 19.646l.848 3.246c.528 2.012.572 12.364.063 14.677-.203.922-.578 3.027-.834 4.677-5.268 33.947-23.758 57.261-49.597 62.536-15.921 3.25-22 1.878-22-4.963 0-2.58.193-3.517 1.886-9.173 2.432-8.126 14.211-43.689 15.302-46.2.191-.44.827-2.15 1.412-3.8s1.215-3.36 1.4-3.8c.185-.44.816-2.15 1.403-3.8 12.86-36.142 17.508-42.269 28.597-37.702" fill="#fcfbfa"/><path d="M183.2 3.541c0 .187-2.745.467-6.1.623-3.355.155-6.271.452-6.48.659-.209.207-1.244.377-2.3.377-1.056 0-1.92.164-1.92.364 0 .201-1.035.447-2.3.548-1.265.1-3.74.492-5.5.871-1.76.379-3.875.782-4.7.895-.825.113-1.5.367-1.5.564 0 .197-.465.358-1.034.358-1.331 0-6.325 1.306-6.499 1.7-.074.165-.749.3-1.5.3-.752 0-1.367.163-1.367.362 0 .2-.9.487-2 .638-1.1.151-2 .438-2 .638 0 .199-.439.362-.976.362-.537 0-1.088.18-1.224.4-.136.22-.687.4-1.224.4-.537 0-.976.157-.976.349 0 .317-2.983 1.05-3.7.91-.165-.033-.3.121-.3.341 0 .22-.36.4-.8.4-.44 0-.8.18-.8.4 0 .22-.45.4-1 .4s-1 .166-1 .368c0 .203-.585.488-1.3.634-1.648.336-3.5 1.111-3.5 1.464 0 .149-.538.389-1.195.533-.658.144-1.299.429-1.424.632-.126.203-.668.369-1.205.369s-.976.18-.976.4c0 .22-.36.4-.8.4-.44 0-.8.14-.8.312s-.9.661-2 1.088c-1.1.427-2 .916-2 1.088 0 .172-.27.312-.6.312-.33 0-.6.16-.6.355 0 .196-.63.474-1.4.619-.77.144-1.4.434-1.4.644 0 .21-.36.382-.8.382-.44 0-.8.18-.8.4 0 .22-.193.4-.429.4-.235 0-.698.27-1.028.6-.33.33-.947.6-1.372.6-.424 0-.771.18-.771.4 0 .22-.27.4-.6.4-.33 0-.6.18-.6.4 0 .22-.193.4-.429.4-.235 0-.698.27-1.028.6-.33.33-.947.6-1.372.6-.424 0-.771.18-.771.4 0 .22-.188.4-.417.4-.229 0-.796.354-1.26.786-.464.433-.964.712-1.111.622-.146-.091-.519.185-.827.613-.309.429-.882.779-1.273.779-.392 0-.712.16-.712.357 0 .196-.45.469-1 .607s-1 .428-1 .644c0 .215-.188.392-.418.392-.23 0-.868.45-1.418 1-.55.55-1.222 1-1.494 1-.271 0-.753.36-1.07.8-.317.44-.73.8-.917.8-.187 0-.591.225-.898.5-1.201 1.077-1.761 1.5-1.986 1.5-.13 0-.685.45-1.235 1s-1.138 1-1.307 1c-.168 0-.655.32-1.082.712-.426.392-1.495 1.245-2.375 1.896-.88.65-2.615 2.22-3.856 3.487-1.241 1.268-2.405 2.305-2.586 2.305-.181 0-.696.358-1.144.796C59.989 60.455 54 66.529 54 66.802c0 .189-.331.449-.736.578-.405.128-.99.724-1.3 1.324-.31.6-1.779 2.313-3.264 3.807-1.485 1.494-2.7 2.871-2.7 3.06 0 .19-.54.922-1.2 1.629-.66.707-1.202 1.491-1.204 1.742-.002.252-.542.883-1.2 1.403-.658.52-1.196 1.196-1.196 1.503 0 .306-.45.949-1 1.427-.55.478-1 1.088-1 1.354 0 .267-.27.589-.6.716-.33.126-.6.507-.6.846 0 .339-.535 1.176-1.188 1.859-.653.684-1.295 1.582-1.427 1.997-.131.414-.407.753-.612.753-.205 0-.373.27-.373.6 0 .33-.18.6-.4.6-.22 0-.4.366-.4.813 0 .446-.27.916-.6 1.042-.33.127-.6.528-.6.892 0 .363-.344.875-.764 1.138-.42.262-.877.99-1.015 1.618-.138.628-.604 1.396-1.036 1.708-.432.311-.785.886-.785 1.277 0 .392-.166.712-.368.712-.203 0-.497.585-.654 1.3-.157.715-.621 1.535-1.032 1.823-.41.287-.746.782-.746 1.1 0 .317-.172.577-.382.577-.21 0-.5.63-.644 1.4-.145.77-.423 1.4-.619 1.4-.195 0-.355.27-.355.6 0 .33-.18.6-.4.6-.22 0-.4.36-.4.8 0 .44-.166.8-.368.8-.203 0-.495.585-.65 1.3-.156.715-.405 1.39-.555 1.5-.382.281-1.937 3.703-2.252 4.956-.144.574-.422 1.044-.618 1.044-.197 0-.357.36-.357.8 0 .44-.178.8-.395.8-.218 0-.511.72-.651 1.6-.141.88-.413 1.6-.605 1.6s-.349.36-.349.8c0 .44-.18.8-.4.8-.22 0-.4.45-.4 1s-.169 1-.375 1c-.207 0-.497.81-.646 1.8-.148.99-.429 1.8-.624 1.8s-.355.45-.355 1-.18 1-.4 1c-.22 0-.4.45-.4 1s-.167 1-.371 1-.495.99-.646 2.2c-.151 1.21-.434 2.2-.629 2.2s-.354.45-.354 1-.18 1-.4 1c-.22 0-.4.63-.4 1.4 0 .77-.171 1.4-.38 1.4s-.502 1.08-.652 2.4c-.149 1.32-.428 2.4-.62 2.4-.191 0-.348.63-.348 1.4 0 .77-.14 1.4-.311 1.4-.325 0-1.225 4.419-1.568 7.7-.109 1.045-.361 1.9-.56 1.9-.198 0-.361.975-.361 2.167 0 1.191-.171 2.226-.38 2.3-.209.073-.505 2.248-.658 4.833-.154 2.585-.433 4.7-.621 4.7-.187 0-.341 1.53-.341 3.4 0 2.049-.162 3.4-.409 3.4-.825 0-.072 37.461.793 39.4.196.44.47 2.69.61 5 .139 2.31.422 4.371.629 4.58.208.209.377 1.118.377 2.02 0 .902.163 1.811.361 2.02.199.209.449 1.19.556 2.18.333 3.071 1.23 7.2 1.564 7.2.176 0 .319.63.319 1.4 0 .77.143 1.4.318 1.4.175 0 .536 1.215.804 2.7.762 4.226.944 4.9 1.323 4.9.195 0 .355.63.355 1.4 0 .77.18 1.4.4 1.4.22 0 .4.443.4.985 0 .883.671 2.868 2.169 6.415.279.66.834 2.235 1.234 3.5.4 1.265.878 2.3 1.062 2.3.184 0 .335.54.335 1.2 0 .66.178 1.2.395 1.2.218 0 .511.72.651 1.6.141.88.413 1.6.605 1.6s.349.36.349.8c0 .44.138.8.306.8.321 0 1.694 2.92 1.694 3.603a.4.4 0 00.4.397c.22 0 .4.36.4.8 0 .44.18.8.4.8a.4.4 0 01.4.397c0 .683 1.373 3.603 1.694 3.603.168 0 .306.36.306.8 0 .44.18.8.4.8a.4.4 0 01.4.397c0 .683 1.373 3.603 1.694 3.603.168 0 .306.27.306.6 0 .33.166.6.368.6.203 0 .487.54.632 1.2.145.66.429 1.2.632 1.2.202 0 .368.27.368.6 0 .33.18.6.4.6.22 0 .4.341.4.757 0 .417.27.861.6.988.33.126.6.596.6 1.042 0 .447.18.813.4.813.22 0 .4.27.4.6 0 .33.152.6.337.6.185 0 .676.63 1.091 1.4.415.77.893 1.4 1.063 1.4.17 0 .309.36.309.8 0 .44.18.8.4.8.22 0 .4.262.4.582 0 .32.45 1.032 1 1.582s1 1.188 1 1.418c0 .23.168.418.373.418s.481.339.612.753c.132.415.774 1.313 1.427 1.997.653.683 1.188 1.416 1.188 1.628 0 .212.45.836 1 1.386.55.55 1 1.188 1 1.418 0 .23.168.418.373.418s.484.351.621.78c.136.428.598.89 1.026 1.026.429.137.78.53.78.874s.63 1.22 1.4 1.946c.77.726 1.4 1.506 1.4 1.734 0 .227 1.89 2.32 4.2 4.649 2.31 2.33 4.2 4.407 4.2 4.617 0 .445 5.628 5.974 6.081 5.974.169 0 1.848 1.53 3.73 3.4 1.883 1.87 3.564 3.4 3.736 3.4.171 0 1.326.99 2.565 2.2 1.239 1.21 2.441 2.2 2.671 2.2.229 0 .417.168.417.373s.351.484.78.621c.428.136.893.605 1.032 1.043.147.464.739.893 1.42 1.029.642.129 1.168.364 1.168.523 0 .561 1.412 1.9 2.3 2.181.495.156.9.452.9.657 0 .205.341.373.757.373.417 0 .864.279.995.619.131.34.78.808 1.443 1.039.663.231 1.205.583 1.205.781 0 .199.204.361.453.361.249 0 .744.334 1.1.743.356.408 1.052.87 1.547 1.027.495.156.9.452.9.657 0 .205.341.373.757.373.417 0 .864.279.995.619.131.34.78.808 1.443 1.039.663.231 1.205.583 1.205.781 0 .199.27.361.6.361.33 0 .6.177.6.392 0 .216.45.506 1 .644s1 .411 1 .607c0 .197.36.357.8.357.44 0 .8.18.8.4 0 .22.27.4.6.4.33 0 .6.18.6.4 0 .22.338.4.751.4s.975.27 1.249.6c.274.33.746.6 1.049.6.303 0 .551.138.551.306 0 .321 2.92 1.694 3.603 1.694a.4.4 0 01.397.4c0 .22.36.4.8.4.44 0 .8.138.8.306 0 .321 2.92 1.694 3.603 1.694a.4.4 0 01.397.4c0 .22.36.4.8.4.44 0 .8.18.8.4 0 .22.405.406.9.413.495.007 1.249.277 1.676.6.428.323 1.103.587 1.5.587.398 0 .724.18.724.4 0 .22.36.4.8.4.44 0 .8.174.8.386 0 .213.9.506 2 .652 1.1.146 2 .422 2 .614 0 .191.27.348.6.348.33 0 .6.18.6.4 0 .22.45.4 1 .4s1 .169 1 .375c0 .207.81.497 1.8.646.99.148 1.8.429 1.8.624s.362.355.805.355c.443 0 1.163.18 1.6.4l1.581.795c.433.217 1.783.512 3 .655 1.218.143 2.214.395 2.214.56 0 .283.405.402 3.5 1.021.715.143 1.3.401 1.3.574 0 .173 1.26.44 2.8.595 1.54.155 2.8.443 2.8.641 0 .197.72.359 1.6.359.88 0 1.6.161 1.6.358 0 .375.832.537 6.4 1.241 1.87.236 3.713.603 4.095.815.382.212 1.762.386 3.066.386 1.305 0 2.432.178 2.506.396.077.23 3.364.508 7.849.664 4.243.147 7.809.419 7.923.604.272.44 20.161.439 20.161-.001 0-.185 3.458-.457 7.684-.604 4.226-.147 7.862-.445 8.08-.663.218-.218 1.429-.396 2.692-.396 1.263 0 2.393-.156 2.512-.348.118-.191 1.836-.474 3.818-.629 1.982-.155 3.706-.449 3.832-.653.126-.203.939-.37 1.806-.37.867 0 1.576-.18 1.576-.4 0-.22.63-.4 1.4-.4.77 0 1.4-.162 1.4-.359 0-.198 1.26-.486 2.8-.641 1.54-.155 2.8-.443 2.8-.641 0-.197.63-.359 1.4-.359.77 0 1.4-.18 1.4-.4 0-.22.45-.4 1-.4s1-.157 1-.348c0-.192 1.08-.471 2.4-.62 1.32-.15 2.4-.443 2.4-.652 0-.209.54-.38 1.2-.38.66 0 1.2-.18 1.2-.4 0-.22.45-.4 1-.4s1-.163 1-.362c0-.2.9-.487 2-.638 1.1-.151 2-.438 2-.638 0-.199.36-.362.8-.362.44 0 .8-.18.8-.4 0-.22.45-.4 1-.4s1-.16 1-.355c0-.195.81-.476 1.8-.624.99-.149 1.8-.439 1.8-.646 0-.206.242-.375.539-.375.296 0 1.061-.248 1.7-.55a72.892 72.892 0 012.461-1.098c.715-.301 1.3-.683 1.3-.85 0-.166.36-.302.8-.302.44 0 .8-.18.8-.4a.4.4 0 01.397-.4c.683 0 3.603-1.373 3.603-1.694 0-.168.36-.306.8-.306.44 0 .8-.18.8-.4a.4.4 0 01.397-.4c.683 0 3.603-1.373 3.603-1.694 0-.168.36-.306.8-.306.44 0 .8-.166.8-.368 0-.203.505-.479 1.122-.615.618-.136 1.377-.6 1.689-1.032.311-.432.886-.785 1.277-.785.392 0 .712-.144.712-.32 0-.175.642-.551 1.426-.835.784-.284 1.524-.77 1.643-1.08.119-.311.535-.565.925-.565.389 0 .932-.27 1.206-.6.274-.33.68-.6.902-.6.222 0 .695-.334 1.051-.743.356-.408 1.052-.87 1.547-1.027.495-.156.9-.452.9-.657 0-.205.23-.373.512-.373.281 0 .771-.36 1.088-.8.317-.44.903-.8 1.301-.8.398 0 .828-.27.954-.6.127-.33.49-.6.806-.6.316 0 1.025-.45 1.575-1s1.222-1 1.494-1c.271 0 .753-.36 1.07-.8.317-.44.741-.8.941-.8.201 0 .959-.63 1.685-1.4.726-.77 1.559-1.4 1.851-1.4.292 0 1.069-.626 1.727-1.391.658-.766 1.407-1.396 1.664-1.4.257-.005 1.548-1.089 2.868-2.409 1.32-1.32 2.512-2.4 2.649-2.4.276 0 1.196-.723 1.934-1.519.265-.286.715-.736 1-1a62.09 62.09 0 001.456-1.426l1.336-1.344 1.4-1.4 1.4-1.4 1.4-1.4 1.4-1.4c.22-.22.87-.838 1.444-1.374.575-.535 1.045-1.133 1.045-1.328 0-.195.351-.466.78-.603.428-.136.897-.62 1.042-1.075.144-.455 1.414-2.008 2.82-3.449 1.407-1.442 2.558-2.748 2.558-2.902 0-.154.63-.967 1.4-1.808.77-.841 1.4-1.672 1.4-1.847 0-.175.54-.834 1.2-1.465.66-.631 1.2-1.43 1.2-1.776 0-.347.36-.744.8-.884.44-.14.8-.45.8-.689 0-.24.45-1.025 1-1.747.55-.721 1-1.437 1-1.59 0-.154.334-.571.743-.927.408-.356.87-1.052 1.027-1.547.156-.495.452-.9.657-.9.205 0 .373-.23.373-.512 0-.281.36-.771.8-1.088.44-.317.8-.903.8-1.301 0-.398.27-.828.6-.954.33-.127.6-.552.6-.945 0-.393.279-.821.619-.952.34-.131.808-.78 1.039-1.443.231-.663.583-1.205.781-1.205.199 0 .361-.27.361-.6 0-.33.16-.6.355-.6.196 0 .467-.591.602-1.313.136-.722.606-1.572 1.045-1.888.439-.317.798-.806.798-1.087 0-.282.16-.512.355-.512.196 0 .474-.63.619-1.4.144-.77.434-1.4.644-1.4.21 0 .382-.36.382-.8 0-.44.18-.8.4-.8.22 0 .4-.27.4-.6 0-.33.16-.6.355-.6.196 0 .474-.63.619-1.4.144-.77.434-1.4.644-1.4.21 0 .382-.36.382-.8 0-.44.18-.8.4-.8.22 0 .4-.27.4-.6 0-.33.16-.6.355-.6.196 0 .472-.617.613-1.371.142-.754.393-1.429.559-1.5.512-.218 2.473-4.557 2.473-5.469 0-.473.18-.86.4-.86.22 0 .4-.249.4-.554 0-.305.269-1.07.598-1.7.328-.63.598-1.641.6-2.246.001-.605.182-1.1.402-1.1.22 0 .4-.27.4-.6 0-.33.18-.6.4-.6.22 0 .4-.45.4-1s.167-1 .371-1 .495-.99.646-2.2c.151-1.21.434-2.2.629-2.2s.354-.45.354-1 .18-1 .4-1c.22 0 .4-.45.4-1s.157-1 .348-1c.192 0 .471-1.08.62-2.4.15-1.32.443-2.4.652-2.4.209 0 .38-.63.38-1.4 0-.77.18-1.4.4-1.4.22 0 .4-.619.4-1.376 0-.757.166-1.479.369-1.605.202-.125.493-1.396.646-2.823.153-1.428.437-2.596.632-2.596.194 0 .353-.81.353-1.8s.162-1.8.36-1.8c.394 0 .607-1.28 1.265-7.6.24-2.31.603-4.513.806-4.895.203-.382.369-1.942.369-3.466 0-1.862.164-2.827.5-2.939.731-.244.731-39.556 0-39.8-.336-.112-.5-1.076-.5-2.933 0-1.522-.153-2.767-.339-2.767-.187 0-.457-1.927-.601-4.281-.144-2.355-.442-4.461-.661-4.68-.22-.22-.399-1.263-.399-2.319s-.18-1.92-.4-1.92c-.22 0-.4-.63-.4-1.4 0-.77-.154-1.4-.343-1.4-.188 0-.463-1.301-.611-2.891-.148-1.59-.443-3.066-.657-3.28-.214-.214-.389-.893-.389-1.509 0-.616-.18-1.12-.4-1.12-.22 0-.4-.63-.4-1.4 0-.77-.159-1.4-.354-1.4-.195 0-.477-.987-.628-2.194-.151-1.206-.441-2.297-.646-2.423-.205-.127-.372-.76-.372-1.407s-.18-1.176-.4-1.176c-.22 0-.4-.45-.4-1s-.16-1-.355-1c-.195 0-.475-.806-.623-1.791-.147-.985-.438-1.895-.645-2.023-.207-.128-.377-.583-.377-1.01 0-.427-.18-.776-.4-.776-.22 0-.4-.45-.4-1s-.169-1-.375-1c-.207 0-.497-.81-.646-1.8-.148-.99-.429-1.8-.624-1.8s-.355-.45-.355-1-.16-1-.355-1c-.196 0-.474-.63-.619-1.4-.144-.77-.39-1.4-.546-1.4-.157 0-.527-.585-.823-1.3a587.066 587.066 0 00-2.101-5c-.303-.715-.687-1.3-.854-1.3-.166 0-.302-.36-.302-.8 0-.44-.18-.8-.4-.8a.4.4 0 01-.4-.397c0-.683-1.373-3.603-1.694-3.603-.168 0-.306-.27-.306-.6 0-.33-.18-.6-.4-.6-.22 0-.4-.338-.4-.751s-.27-.975-.6-1.249c-.33-.274-.6-.746-.6-1.049 0-.303-.18-.551-.4-.551-.22 0-.4-.36-.4-.8 0-.44-.166-.8-.368-.8-.203 0-.479-.505-.615-1.122-.136-.618-.6-1.377-1.032-1.689-.432-.311-.785-.864-.785-1.228 0-.365-.27-.887-.6-1.161-.33-.274-.6-.68-.6-.902 0-.222-.334-.695-.743-1.051-.408-.356-.87-1.052-1.027-1.547-.156-.495-.452-.9-.657-.9-.205 0-.373-.23-.373-.512 0-.281-.36-.771-.8-1.088-.44-.317-.8-.903-.8-1.301 0-.398-.27-.828-.6-.954-.33-.127-.6-.505-.6-.841 0-.336-.334-.901-.743-1.257-.408-.356-.87-1.052-1.027-1.547-.156-.495-.452-.9-.657-.9-.205 0-.373-.188-.373-.418 0-.23-.45-.868-1-1.418-.55-.55-1-1.156-1-1.345 0-.19-.81-1.179-1.8-2.198-.99-1.018-1.8-2.018-1.8-2.22 0-.203-.892-1.321-1.983-2.485a170.92 170.92 0 01-3.3-3.626c-.724-.831-1.551-1.731-1.836-2-.286-.27-.736-.724-1-1.009-1.931-2.085-2.362-2.481-2.699-2.481-.21 0-.382-.302-.382-.67 0-.643-5.693-6.53-6.315-6.53-.166 0-.748-.452-1.293-1.004a105.06 105.06 0 00-1.511-1.5c-.286-.273-.736-.73-1-1.015a40.4 40.4 0 00-3.64-3.481c-.781-.66-2.07-1.785-2.864-2.5-.795-.715-1.575-1.3-1.733-1.3-.158 0-.975-.63-1.816-1.4-.841-.77-1.688-1.4-1.882-1.4-.194 0-.918-.54-1.609-1.2-.691-.66-1.401-1.2-1.578-1.2-.178 0-.773-.45-1.323-1-.55-.55-1.188-1-1.418-1-.23 0-.418-.168-.418-.373s-.405-.501-.9-.657c-.495-.157-1.17-.578-1.5-.938-.824-.897-2.662-2.032-3.29-2.032-.285 0-.742-.36-1.017-.8-.275-.44-.768-.8-1.096-.8-.329 0-.597-.177-.597-.392 0-.216-.45-.506-1-.644s-1-.411-1-.607c0-.197-.193-.357-.429-.357-.235 0-.698-.27-1.028-.6-.33-.33-.947-.6-1.372-.6-.424 0-.771-.18-.771-.4 0-.22-.27-.4-.6-.4-.33 0-.601-.135-.603-.3-.003-.402-2.316-1.7-3.029-1.7-.313 0-.568-.18-.568-.4 0-.22-.27-.4-.6-.4-.33 0-.6-.18-.6-.4 0-.22-.36-.4-.8-.4-.44 0-.8-.172-.8-.382 0-.21-.63-.5-1.4-.644-.77-.145-1.4-.423-1.4-.619 0-.195-.27-.355-.6-.355-.33 0-.6-.18-.6-.4 0-.22-.36-.4-.8-.4-.44 0-.8-.172-.8-.382 0-.21-.63-.5-1.4-.644-.77-.145-1.4-.423-1.4-.619 0-.195-.27-.355-.6-.355-.33 0-.6-.16-.6-.357 0-.348-1.903-1.039-2.5-.909-.165.036-.3-.114-.3-.334 0-.22-.36-.4-.8-.4-.44 0-.8-.18-.8-.4 0-.22-.45-.4-1-.4s-1-.178-1-.395c0-.218-.72-.511-1.6-.651-.88-.141-1.6-.413-1.6-.605s-.36-.349-.8-.349c-.44 0-.8-.18-.8-.4 0-.22-.45-.4-1-.4s-1-.16-1-.355c0-.195-.81-.476-1.8-.624-.99-.149-1.8-.439-1.8-.646 0-.206-.45-.375-1-.375s-1-.18-1-.4c0-.22-.414-.4-.92-.4s-1.105-.185-1.331-.411c-.225-.225-1.341-.521-2.48-.655-1.138-.135-2.069-.4-2.069-.59 0-.189-.54-.344-1.2-.344-.66 0-1.2-.18-1.2-.4 0-.22-.529-.4-1.176-.4-.647 0-1.279-.166-1.405-.369-.125-.202-1.396-.493-2.823-.646-1.428-.153-2.596-.437-2.596-.632 0-.194-.63-.353-1.4-.353-.77 0-1.4-.143-1.4-.319 0-.318-4.919-1.23-8.5-1.575-1.045-.101-1.9-.346-1.9-.545 0-.198-.912-.361-2.026-.361-1.115 0-2.345-.171-2.735-.379-.39-.209-3.258-.506-6.374-.66-3.116-.154-5.665-.433-5.665-.621 0-.187-7.29-.34-16.2-.34s-16.2.153-16.2.341m52.559 71.694c8.187.402 18.474 1.444 23.241 2.352 1.1.21 2.99.553 4.2.763 12.585 2.178 27.124 9.581 33.774 17.196.454.52 1.501 1.69 2.326 2.6.825.909 1.5 1.767 1.5 1.905 0 .139.631 1.299 1.401 2.579 1.677 2.785 3.805 8.074 4.252 10.57 1.344 7.498 1.59 10.057 1.386 14.4-.281 5.998-.609 9.211-1.04 10.2-.192.44-.432 1.43-.534 2.2-1.467 11.152-11.831 27.106-24.07 37.053-2.698 2.192-11.625 8.547-12.007 8.547-.137 0-1.449.77-2.918 1.712-2.374 1.522-11.937 6.41-15.67 8.01-.77.33-2.651 1.174-4.181 1.877-1.53.702-3.69 1.624-4.8 2.05-1.11.425-2.469.972-3.019 1.216-.55.243-1.45.623-2 .845-7.342 2.955-7.389 4.054-.47 10.941 7.545 7.51 12.54 16.426 15.878 28.349.37 1.32.812 2.76.983 3.2.171.44.799 2.33 1.396 4.2.597 1.87 1.228 3.76 1.402 4.2.175.44.809 2.06 1.41 3.6 3.218 8.25 8.37 18.056 12.188 23.2 2.465 3.321 8.455 8.506 11.626 10.063 7.757 3.807 20.902 3.437 30.187-.851 9.488-4.382 13.747-3.369 11.225 2.668-.958 2.291-10.167 9.92-11.975 9.92-.133 0-1.505.81-3.05 1.8s-2.905 1.8-3.023 1.8c-.119 0-1.242.657-2.496 1.459-2.614 1.672-9.589 5.058-14.281 6.932-1.76.703-3.56 1.424-4 1.603-1.225.497-6.603 2.094-8.4 2.494-10.677 2.375-17.027 3.04-22.273 2.334-4.378-.59-8.769-1.565-9.307-2.067-.209-.195-.609-.355-.889-.355-.93 0-5.097-2.113-7.535-3.82-2.438-1.707-8.596-7.986-8.596-8.765 0-.099-.405-.78-.9-1.514-.851-1.26-3.673-6.767-4.357-8.501-.712-1.805-2.074-6.092-2.35-7.4-.163-.77-.599-2.81-.968-4.534-1.684-7.859-2.256-16.629-1.942-29.737.423-17.634-2.312-29.92-8.547-38.402-.515-.701-.936-1.422-.936-1.603 0-.181-1.045-1.33-2.323-2.552-6.825-6.532-14.106-5.794-16.299 1.654-.884 3.003-.947 3.255-3.37 13.574-.88 3.747-2.09 8.283-2.401 9-.191.44-.436 1.25-.546 1.8-.109.55-.466 1.99-.794 3.2-1.497 5.531-3.563 13.493-3.736 14.4-.105.55-.338 1.36-.518 1.8-.179.44-.718 2.51-1.198 4.6-.479 2.09-1.026 4.43-1.214 5.2-.849 3.47-1.71 7.139-2.041 8.7-.198.935-.525 2.465-.728 3.4-.439 2.031-1.578 8.067-2.076 11-.196 1.155-.517 3.045-.715 4.2-.9 5.275-2.194 14.946-2.769 20.7-.362 3.633-.793 4.48-2.758 5.421-1.481.709-2.646.995-7.514 1.846-2.61.456-29.728.881-32.508.51-3.274-.438-4.57-3.712-3.753-9.478 1.08-7.624 1.518-10.025 2.064-11.299.188-.44.432-1.34.542-2 .109-.66.491-2.37.849-3.8.357-1.43.806-3.23.996-4 .419-1.691 2.32-8.85 2.869-10.8.217-.77.542-2.03.722-2.8a280.703 280.703 0 012.01-7.8c.186-.66.724-2.73 1.197-4.6.472-1.87 1.011-3.76 1.198-4.2.186-.44.636-1.97.998-3.4.363-1.43.809-3.05.992-3.6.182-.55.553-1.81.824-2.8.271-.99.632-2.25.801-2.8.17-.55.619-2.17.999-3.6.38-1.43.831-3.05 1.004-3.6.173-.55.617-2.08.987-3.4.37-1.32.818-2.85.995-3.4.176-.55.544-1.81.817-2.8.272-.99.721-2.61.997-3.6.276-.99.725-2.61.997-3.6.273-.99.635-2.25.804-2.8.17-.55.619-2.17.998-3.6.379-1.43.829-2.96 1-3.4.17-.44.5-1.52.731-2.4.232-.88.705-2.59 1.051-3.8s.828-2.92 1.07-3.8c.243-.88.587-2.05.763-2.6.177-.55.624-2.08.994-3.4.37-1.32.813-2.76.986-3.2.173-.44.504-1.52.736-2.4.425-1.615 1.58-5.56 3.456-11.8.562-1.87 1.221-4.12 1.464-5 .244-.88.588-2.05.764-2.6.177-.55.625-2.08.995-3.4.37-1.32.82-2.85 1-3.4.18-.55.635-2.08 1.011-3.4.377-1.32.908-3.12 1.182-4 .273-.88.895-3.04 1.382-4.8.487-1.76 1.049-3.513 1.251-3.895.201-.382.365-.923.365-1.203s.696-2.668 1.546-5.306c1.483-4.596 2.207-6.937 4.331-13.996.529-1.76 1.134-3.513 1.343-3.895.209-.382.38-.969.38-1.305 0-.336.167-.923.371-1.305.204-.382.661-1.685 1.016-2.895.354-1.21.795-2.56.981-3 .185-.44.65-1.61 1.034-2.6.845-2.181 4.24-9.321 4.565-9.6.128-.11.429-.56.67-1 2.253-4.13 3.185-5.755 3.82-6.662.408-.584.743-1.197.743-1.362 0-.165.45-.89 1-1.612.55-.721 1-1.409 1-1.53 0-.386 2.922-4.829 3.267-4.967 3.087-1.236-8.965-.703-16.067.71-5.238 1.042-14.469 3.727-17.8 5.179-.44.191-1.61.665-2.6 1.052-2.762 1.079-12.6 5.992-13.2 6.592-.11.11-.83.544-1.6.964-1.581.863-9.7 6.405-10.487 7.158-.282.271-2.133 1.859-4.113 3.531-6.756 5.703-13.089 12.955-16.183 18.532-2.665 4.802-4.304 8.417-5.176 11.415-.289.99-.692 2.228-.898 2.752-1.25 3.186-1.182 15.45.106 19.248 3.33 9.814 8.275 13.6 17.765 13.6 4.693 0 6.182-.211 8.947-1.27 2.232-.855 1.676 2.105-1.656 8.806-2.44 4.908-10.255 12.854-15.085 15.339a167.01 167.01 0 00-3.248 1.762c-2.282 1.268-6.373 2.874-9.572 3.759-.99.273-2.34.684-3 .913-2.274.788-16.731.862-19.947.102-14.513-3.427-22.288-11.15-24.87-24.702-1.009-5.296-.44-18.988 1.015-24.409.221-.825.6-2.265.843-3.2.701-2.705 2.344-7.55 3.186-9.396.425-.932.773-1.799.773-1.925 0-4.12 13.434-21.891 21.603-28.577 1.208-.989 2.466-2.056 2.796-2.37 3.859-3.687 24.315-16.032 26.564-16.032.119 0 1.346-.517 2.727-1.149 5.894-2.698 16.834-6.767 21.71-8.074.66-.177 2.19-.618 3.4-.981a90.93 90.93 0 013.6-1.001c.77-.188 2.12-.548 3-.8 1.939-.555 6.352-1.575 8-1.85.66-.11 1.56-.348 2-.53.748-.309 4.858-1.173 9.7-2.039 1.155-.207 3.045-.549 4.2-.76 4.784-.873 7.084-1.234 10.5-1.646 1.98-.239 4.86-.597 6.4-.795 5.394-.696 16.882-1.567 26-1.972 5.06-.224 9.92-.466 10.8-.536 3.489-.278 5.864-.25 14.359.168m-1.771 10.056c-.777.5-1.963 1.256-2.636 1.68-1.022.643-4.152 4.525-4.152 5.149 0 .104-.81 1.911-1.8 4.015-.99 2.105-1.8 3.943-1.8 4.085 0 .143-.27.871-.6 1.62l-1.2 2.72c-.33.749-.6 1.471-.6 1.605 0 .211-.585 1.598-2.039 4.835-.383.854-2.566 6.802-3.229 8.8a35.1 35.1 0 01-.733 2c-.184.44-.814 2.15-1.399 3.8-.585 1.65-1.215 3.36-1.4 3.8-.33.786-2.073 5.639-2.874 8-.224.66-.554 1.56-.734 2-.18.44-1.253 3.59-2.385 7s-2.208 6.56-2.391 7c-.183.44-1.447 4.31-2.81 8.6s-2.63 8.16-2.815 8.6c-.633 1.503-3.478 10.795-3.98 13-.276 1.21-.661 2.613-.856 3.119-1.077 2.788-.184 6.235 2.004 7.733 2.062 1.411 13.743 1.137 19.441-.456 6.973-1.949 15.294-5.493 17.431-7.425.348-.314.765-.571.927-.571.283 0 2.112-1.301 4.218-3 9.103-7.345 16.829-18.431 20.628-29.6a76.08 76.08 0 011.71-4.639c.227-.571.885-3.001 1.463-5.4.577-2.398 1.219-4.991 1.427-5.761.208-.77.586-2.75.842-4.4.255-1.65.643-3.99.863-5.2 3.11-17.106-4.685-33.944-18.909-40.848a298.73 298.73 0 01-4.19-2.061c-1.714-.891-5.903-.778-7.422.2" fill="#f4841c"/><path d="M224.713 75.095c1.163.081 2.963.081 4-.002 1.038-.082.087-.148-2.113-.147-2.2.001-3.049.068-1.887.149m-8.413.4c1.155.081 3.045.081 4.2 0 1.155-.081.21-.147-2.1-.147s-3.255.066-2.1.147m16.4 0c1.155.081 3.045.081 4.2 0 1.155-.081.21-.147-2.1-.147s-3.255.066-2.1.147M201.8 76l-2 .274 1.8.02c.99.01 2.88-.115 4.2-.279l2.4-.297-2.2.004c-1.21.002-3.1.127-4.2.278m42.6.017c1.21.167 2.83.298 3.6.29 1.122-.011 1.003-.076-.6-.325-1.1-.172-2.72-.302-3.6-.291-1.393.019-1.316.061.6.326m-49.295.666c.497.096 1.217.092 1.6-.008.382-.1-.025-.179-.905-.174-.88.004-1.193.086-.695.182m-7.705.493c-.454.181.499.241 2.2.139 3.907-.233 4.481-.451 1.2-.455-1.43-.002-2.96.14-3.4.316m66.233-.232c.092.079 1.067.247 2.167.374 1.287.149 1.715.108 1.2-.115-.764-.331-3.714-.558-3.367-.259M181.4 78.02c-.539.245-.146.285 1.2.121 1.1-.134 2.075-.31 2.167-.392.35-.313-2.606-.075-3.367.271m77.433-.277c.092.078.797.258 1.567.399.985.181 1.222.14.8-.136-.542-.356-2.763-.603-2.367-.263m-81.933.933c.385.1 1.015.1 1.4 0 .385-.101.07-.183-.7-.183s-1.085.082-.7.183m87.1.124c.55.176 1.36.32 1.8.32.633 0 .592-.066-.2-.32-.55-.176-1.36-.32-1.8-.32-.633 0-.592.066.2.32m-89.9.276c.385.1 1.015.1 1.4 0 .385-.101.07-.183-.7-.183s-1.085.082-.7.183m-6.3.927c-.515.223-.087.264 1.2.115 1.1-.127 2.075-.295 2.167-.374.347-.299-2.603-.072-3.367.259m100.233-.259c.092.079.707.264 1.367.412.876.196 1.038.159.6-.138-.54-.365-2.368-.62-1.967-.274M163.4 80.8c-1.019.438.032.438 1.4 0 .804-.257.843-.323.2-.332-.44-.006-1.16.143-1.6.332m-4.6.8c-.804.257-.843.323-.2.332.44.006 1.16-.143 1.6-.332 1.019-.438-.032-.438-1.4 0m-5.01 1.216c-.169.273.133.322.876.144 1.533-.368 1.678-.56.424-.56-.573 0-1.158.187-1.3.416m-3.39.784c-.795.514.204.514 1.4 0l.8-.344-.8-.022c-.44-.012-1.07.153-1.4.366m-3.92.795c-.726.172-1.433.425-1.571.563-.297.297 2.145-.143 3.291-.593 1.02-.401.024-.383-1.72.03m87.785.252c-.625.339-1.034.717-.91.841s.528-.025.897-.331 1.678-.666 2.909-.798l2.239-.241-2-.043c-1.121-.024-2.499.228-3.135.572M231.4 86.65c-.719.612-.866.855-.367.607.733-.364 2.108-1.681 1.716-1.643-.082.008-.689.474-1.349 1.036m-92.2-.25c-.533.345-.533.388 0 .388.33 0 .87-.175 1.2-.388.533-.345.533-.388 0-.388-.33 0-.87.175-1.2.388m-3.144.859c-.739.213-1.269.461-1.177.553.202.202 3.121-.575 3.121-.831 0-.235-.318-.19-1.944.278M181 87.19c-.66.162.51.206 2.6.098 2.09-.109 3.875-.263 3.967-.343.305-.266-5.348-.055-6.567.245m105.6.217c.44.359 1.16.828 1.6 1.044l.8.393-.8-.651c-.44-.359-1.16-.828-1.6-1.044l-.8-.393.8.651M175.6 88c-.792.254-.833.32-.2.32.44 0 1.25-.144 1.8-.32.792-.254.833-.32.2-.32-.44 0-1.25.144-1.8.32m14.664.8c-.39.66-.643 1.2-.562 1.2.081 0 .547-.54 1.035-1.2.488-.66.74-1.2.561-1.2-.179 0-.644.54-1.034 1.2m57.747-.53a61.355 61.355 0 012.489 1.834c.825.64 1.5 1.064 1.5.943 0-.316-4.202-3.447-4.625-3.447-.194 0 .092.302.636.67m-76.211.53c-1.107.282-1.123.309-.2.347.55.022 1.27-.134 1.6-.347.681-.44.329-.44-1.4 0M127 90.214c-1 .482-1.034.537-.2.334 1.133-.277 2.407-.927 1.8-.918-.22.003-.94.266-1.6.584M167 90c-.504.217-.578.344-.2.344.33 0 .96-.155 1.4-.344.504-.217.578-.344.2-.344-.33 0-.96.155-1.4.344m124.17.532c1.019 1.122 1.238 1.261 1.217.768-.006-.165-.501-.646-1.1-1.068l-1.087-.768.97 1.068m-102.556.903c-.373.569-.609 1.103-.525 1.187.084.085.469-.381.855-1.034.862-1.46.604-1.579-.33-.153m37.461 2.384c-1.205 2.481-1.07 2.828.171.442.555-1.067.941-2.008.857-2.091-.084-.084-.546.658-1.028 1.649m-39.291.604c-.479.673-.805 1.29-.723 1.371.082.082.553-.468 1.047-1.223 1.115-1.7.863-1.815-.324-.148M296.8 95.8c.517.55 1.006 1 1.088 1 .333 0-1.316-1.976-1.658-1.987-.203-.007.053.437.57.987m-148 1.2c-.99.53-1.658.972-1.484.982.425.024 3.484-1.548 3.484-1.79 0-.265.017-.272-2 .808m-41.6 1.2c-.99.53-1.62.964-1.4.964.22 0 1.21-.434 2.2-.964.99-.53 1.62-.964 1.4-.964-.22 0-1.21.434-2.2.964m76.823.85c-.47.798-.771 1.536-.667 1.639.103.104.564-.549 1.024-1.45 1.035-2.028.801-2.151-.357-.189m115.177-.867c0 .16.36.748.8 1.308.44.559.8.886.8.726 0-.16-.36-.748-.8-1.308-.44-.559-.8-.886-.8-.726m-38.337 3.884c.735 1.467 1.404 2.6 1.487 2.517.181-.181-1.866-4.213-2.428-4.784-.217-.22.207.8.941 2.267m-37.996-.887c-.234.671-.34 1.22-.236 1.22.27 0 1.025-2.078.826-2.276-.09-.091-.356.384-.59 1.056m78.282.22c.216.44.685 1.16 1.044 1.6l.651.8-.393-.8c-.216-.44-.685-1.16-1.044-1.6l-.651-.8.393.8m-202.727 1.207c-1.418.765-2.768 1.587-3 1.828-.451.468 4.918-2.331 5.558-2.898.677-.6.07-.346-2.558 1.07m34.478 3.833c-.935.662-1.7 1.293-1.7 1.401 0 .109.81-.36 1.8-1.041.99-.681 1.8-1.32 1.8-1.419 0-.276-.076-.233-1.9 1.059m46.28 1.199c-.46.901-.767 1.707-.683 1.791.084.084.544-.654 1.022-1.639 1.09-2.244.796-2.376-.339-.152m41.62-1.555c0 .12-.272.87-.605 1.667-.333.797-.516 1.449-.406 1.449.317 0 1.444-2.9 1.216-3.128-.113-.113-.205-.107-.205.012m42.456 1.516c0 .33.155.96.344 1.4.217.504.344.578.344.2 0-.33-.155-.96-.344-1.4-.217-.504-.344-.578-.344-.2m-176.953 2.909c-2.144 1.59-3.899 3.06-3.9 3.266-.002.206.492-.085 1.097-.648.605-.562 2.405-1.96 4-3.107 2.481-1.783 3.259-2.453 2.8-2.411-.055.005-1.854 1.31-3.997 2.9m218.326-2.109c.147.55.435 1.27.638 1.6.258.417.29.295.104-.4-.147-.55-.435-1.27-.638-1.6-.258-.417-.29-.295-.104.4m-179.73 4.448c-2.254 1.97-4.099 3.671-4.099 3.781 0 .11 1.306-.931 2.903-2.314a354.97 354.97 0 014.25-3.631c.741-.614 1.28-1.185 1.197-1.268-.083-.083-1.996 1.462-4.251 3.432m180.735-1.648c.012.33.177.96.366 1.4l.344.8.022-.8c.012-.44-.153-1.07-.366-1.4-.345-.533-.385-.533-.366 0m-41.228 1.233c.003.532.183 1.237.4 1.567.276.422.317.185.136-.8-.317-1.725-.544-2.051-.536-.767M306.658 116c.317 1.725.544 2.051.536.767-.003-.532-.183-1.237-.4-1.567-.276-.422-.317-.185-.136.8m-227.98.613c-1.472 1.294-.945 1.283.595-.013.654-.55 1.04-.994.858-.987-.182.007-.836.457-1.453 1m228.623 3.187c.004.88.086 1.193.182.695.096-.497.092-1.217-.008-1.6-.1-.382-.179.025-.174.905m-189.701 0c-.517.55-.773.994-.57.987.342-.011 1.991-1.987 1.658-1.987-.082 0-.571.45-1.088 1m-2.422 2.9l-1.378 1.5 1.5-1.378c.825-.759 1.5-1.434 1.5-1.5 0-.306-.338-.018-1.622 1.378m192.575 3.5c0 2.64.065 3.668.144 2.284.078-1.383.077-3.543-.002-4.8-.079-1.256-.143-.124-.142 2.516m-236.381-2.1c-2.315 2.429-3.569 3.9-3.325 3.9.093 0 1.393-1.35 2.887-3 3.125-3.45 3.393-4.001.438-.9m41.751 1c-.705.821-1.233 1.7-1.022 1.7.082 0 .548-.54 1.036-1.2.964-1.304.955-1.628-.014-.5m151.526 1.115c-.137.358-.231 1.131-.209 1.718.033.858.112.762.406-.493.376-1.601.249-2.387-.197-1.225M111.123 127.9c-.763.889-1.228 1.7-.974 1.7.108 0 .581-.54 1.051-1.2.932-1.309.884-1.619-.077-.5m59.906 1.529c-.148.586-.191 1.143-.097 1.237.095.094.292-.308.439-.895.148-.586.191-1.143.097-1.237-.095-.094-.292.308-.439.895M170.2 132c-.15.473-.183.95-.073 1.06.11.11.323-.187.473-.66.15-.473.183-.95.073-1.06-.11-.11-.323.187-.473.66m93.46.45a32.862 32.862 0 01-.259 2.4l-.198 1.35.421-1.343c.231-.738.348-1.818.258-2.4l-.162-1.057-.06 1.05M63.877 133.9c-1.434 2.304-1.538 2.5-1.335 2.5.104 0 .743-.9 1.42-2 .677-1.1 1.145-2 1.039-2-.105 0-.611.675-1.124 1.5m43.323.5c-.449.88-.726 1.6-.616 1.6.11 0 .567-.72 1.016-1.6.449-.88.726-1.6.616-1.6-.11 0-.567.72-1.016 1.6m199.664 1.267c-.035.587-.18 1.397-.323 1.8-.198.562-.145.628.229.284.274-.252.416-1.042.323-1.8-.134-1.098-.177-1.151-.229-.284M262.6 138c-.15.473-.183.95-.073 1.06.11.11.323-.187.473-.66.15-.473.183-.95.073-1.06-.11-.11-.323.187-.473.66m-202.22 1.639c-.46.901-.767 1.707-.683 1.791.084.084.544-.654 1.022-1.639 1.09-2.244.796-2.376-.339-.152m245.449.99c-.148.586-.178 1.155-.068 1.265.11.11.32-.279.468-.865.147-.587.177-1.156.067-1.266-.11-.11-.32.279-.467.866m-247.018 2.342c-.594 1.563-.477 1.809.236.494.339-.625.517-1.235.395-1.356-.121-.121-.405.267-.631.862m107.629 1.269c-.23.833-.346 1.587-.258 1.675.088.088.348-.522.578-1.355.23-.833.346-1.587.258-1.675-.088-.088-.348.522-.578 1.355m40.404-.196c-.246.707-.378 1.356-.292 1.441.086.086.357-.423.604-1.129.246-.707.378-1.356.292-1.441-.086-.086-.357.423-.604 1.129m98.029.429c-.238.936-.363 1.77-.279 1.854.084.085.357-.603.606-1.527.249-.924.374-1.759.279-1.855-.096-.095-.369.592-.606 1.528M261 144.8c-.152.691-.193 1.341-.091 1.442.102.102.3-.389.441-1.092.333-1.667.01-1.99-.35-.35m-95.571 2.629c-.148.586-.191 1.143-.097 1.237.095.094.292-.308.439-.895.148-.586.191-1.143.097-1.237-.095-.094-.292.308-.439.895m-63.57 4.671c-.256 3.782.19 10.493.733 11.012.166.158.16-.342-.014-1.112-.173-.77-.31-4.145-.305-7.5.013-7.061-.067-7.522-.414-2.4m62.808-2.233c-.147.146-.256.641-.242 1.1.024.766.057.756.409-.125.392-.979.31-1.453-.167-.975m-109.638 3.162c-.148.586-.191 1.143-.097 1.237.095.094.292-.308.439-.895.148-.586.191-1.143.097-1.237-.095-.094-.292.308-.439.895m108.4 1.2c-.148.586-.191 1.143-.097 1.237.095.094.292-.308.439-.895.148-.586.191-1.143.097-1.237-.095-.094-.292.308-.439.895m92.19 5.222c-.868 1.962-1.069 2.819-.385 1.645.648-1.113 1.596-3.496 1.39-3.496-.103 0-.555.833-1.005 1.851m-202.17-.436c-.137.358-.228 1.131-.203 1.718.034.799.124.665.358-.533.331-1.7.258-2.26-.155-1.185m108.4.4a3.854 3.854 0 00-.215 1.318c.019.367.193.136.387-.513.377-1.262.244-1.887-.172-.805m-1.009 3.625c-.23.833-.346 1.587-.258 1.675.088.088.348-.522.578-1.355.23-.833.346-1.587.258-1.675-.088-.088-.348.522-.578 1.355m-58.028 1.36c0 .33.175.87.388 1.2.345.533.388.533.388 0 0-.33-.175-.87-.388-1.2-.345-.533-.388-.533-.388 0m186.615 5.517c-2.939 3.147-3.421 3.764-1.47 1.883 2.588-2.496 6.341-6.627 5.98-6.583-.075.009-2.105 2.124-4.51 4.7M52.2 168c-.156 1.347-.199 2.534-.095 2.638.104.104.314-.916.466-2.267.153-1.35.196-2.537.096-2.638-.101-.1-.311.92-.467 2.267m199.646-1.4c-.355.55-.937 1.495-1.293 2.1l-.648 1.1.805-.974c.95-1.15 2.211-3.226 1.959-3.226-.098 0-.468.45-.823 1M104.4 168.549c0 .432 1.589 3.451 1.816 3.451.11 0-.186-.765-.657-1.7-.927-1.839-1.159-2.189-1.159-1.751M248 172.4c-.47.66-.764 1.2-.654 1.2.11 0 .584-.54 1.054-1.2.47-.66.764-1.2.654-1.2-.11 0-.584.54-1.054 1.2m-5 5.682c-3.459 3.508-3.585 3.677-.928 1.251 2.701-2.466 5.452-5.357 5.064-5.32-.075.007-1.936 1.838-4.136 4.069m38.776-1.161a809.921 809.921 0 01-3.4 2.805c-1.271 1.04-1.239 1.032.424-.099 1.835-1.249 5.563-4.396 5.2-4.389-.11.002-1.111.759-2.224 1.683M130 177.232c-.462.324-.381.358.354.15.882-.25.935-.184.695.874-.214.943-.183 1.017.179.42.804-1.326-.017-2.291-1.228-1.444m-11.088 1.463c1.052.082 2.672.081 3.6-.003.928-.084.068-.151-1.912-.15-1.98.001-2.74.07-1.688.153M52.08 180.2c0 .44.144 1.25.32 1.8.254.792.32.833.32.2 0-.44-.144-1.25-.32-1.8-.254-.792-.32-.833-.32-.2m223.32 1.635l-1.2 1.031 1.3-.86c.715-.473 1.3-.938 1.3-1.033 0-.3-.169-.195-1.4.862m-120.371.794c-.148.586-.191 1.143-.097 1.237.095.094.292-.308.439-.895.148-.586.191-1.143.097-1.237-.095-.094-.292.308-.439.895m82.614.194c-.526.438-.872.882-.768.985.104.104.611-.26 1.126-.81 1.123-1.194.961-1.273-.358-.175m33.568 1.797c-.764.539-1.214.979-1 .978.214-.001.929-.445 1.589-.986 1.541-1.263 1.205-1.259-.589.008m-142.746.397c-.67 1.471-.542 1.785.182.448.339-.625.541-1.211.449-1.302-.091-.092-.375.293-.631.854m106.535.018l-1.2 1.031 1.3-.86c.715-.473 1.3-.938 1.3-1.033 0-.3-.169-.195-1.4.862m-41.354.232c-.025.367-.15.997-.276 1.4-.218.695-.207.696.227.02.251-.391.376-1.021.276-1.4-.162-.619-.185-.621-.227-.02m-140.44.966c.003.422.189 1.037.412 1.367.297.438.334.276.138-.6-.329-1.471-.558-1.79-.55-.767m178.542.701c-.688.476-1.588 1.094-2 1.372-.411.278-.118.207.652-.157 1.497-.708 3.541-2.172 2.954-2.115-.195.019-.917.424-1.606.9M153.2 188.8c-.249.924-.374 1.759-.279 1.855.096.095.369-.592.606-1.528.238-.936.363-1.77.279-1.854-.084-.085-.357.603-.606 1.527m111.8-.4c-.66.437-1.02.792-.8.788.401-.006 2.576-1.565 2.2-1.576-.11-.004-.74.351-1.4.788m-139.001.9c-.589.804-.686 1.084-.254.733.656-.533 1.648-2.033 1.344-2.033-.076 0-.567.585-1.09 1.3m-4.399 4.821c-1.87 1.82-4.12 3.903-5 4.629-1.448 1.193-1.467 1.231-.2.397 1.356-.893 9.203-8.322 8.8-8.331-.11-.002-1.73 1.485-3.6 3.305M56.015 193c.002.22.371.85.821 1.4.543.664.679.731.404.2-.674-1.305-1.228-2.028-1.225-1.6m197.385 1.174c-1.1.529-1.888.977-1.751.994.367.047 3.951-1.574 3.951-1.787 0-.265-.02-.257-2.2.793m-58.56.126c.304.495.809.9 1.123.9.314 0 .495-.047.404-.104-.092-.058-.597-.463-1.124-.9l-.956-.796.553.9m19.96-.3c-.795.514.204.514 1.4 0l.8-.344-.8-.022c-.44-.012-1.07.153-1.4.366m-4.6.8l-1.6.286 1.4.029c.77.016 1.76-.126 2.2-.315.943-.405.262-.405-2 0m-5.295.687c.609.092 1.509.09 2-.005.492-.095-.005-.171-1.105-.168-1.1.003-1.503.081-.895.173m-54.465 2.753c-.23.833-.346 1.587-.258 1.675.088.088.348-.522.578-1.355.23-.833.346-1.587.258-1.675-.088-.088-.348.522-.578 1.355m-89.002 1.62c1.561 1.507 3.586 3.157 4.5 3.666 2.185 1.217 2.153.838-.038-.448-.935-.548-2.96-2.113-4.5-3.478l-2.8-2.481 2.838 2.741M68 204.631c0 .27 2.078 1.025 2.276.826.091-.09-.384-.356-1.056-.59-.671-.234-1.22-.34-1.22-.236m37 .383c-1 .482-1.034.537-.2.334 1.133-.277 2.407-.927 1.8-.918-.22.003-.94.266-1.6.584m90.505.469c.497.096 1.217.092 1.6-.008.382-.1-.025-.179-.905-.174-.88.004-1.193.086-.695.182M99.2 206.8c-.824.264-.859.326-.2.354.44.019 1.07-.141 1.4-.354.701-.453.214-.453-1.2 0m91.729.5c-.445.495-.953 1.17-1.128 1.5-.338.637-.246.55 1.375-1.3.53-.605.873-1.1.763-1.1-.11 0-.564.405-1.01.9m41.435.233c.216.403.707.988 1.091 1.3.432.351.335.071-.254-.733-1.05-1.435-1.444-1.702-.837-.567m-27.568 2c1.425 1.357 2.678 2.467 2.783 2.467.356 0-3.774-4.057-4.577-4.497-.44-.24.368.674 1.794 2.03M93.6 208.02c-.674.229-.349.264 1 .108 1.1-.127 2.075-.297 2.167-.379.315-.281-2.168-.069-3.167.271m-13.9.256c.385.1 1.015.1 1.4 0 .385-.101.07-.183-.7-.183s-1.085.082-.7.183m157.5 4.324c1.195 1.21 2.263 2.2 2.373 2.2.11 0-.778-.99-1.973-2.2-1.195-1.21-2.263-2.2-2.373-2.2-.11 0 .778.99 1.973 2.2m-49.154 1.067c-.025.367-.15.997-.276 1.4-.218.695-.207.696.227.02.251-.391.376-1.021.276-1.4-.162-.619-.185-.621-.227-.02M240.4 216.2c.517.55 1.006 1 1.088 1 .333 0-1.316-1.976-1.658-1.987-.203-.007.053.437.57.987M187 218c-.152.691-.193 1.341-.091 1.442.102.102.3-.389.441-1.092.333-1.667.01-1.99-.35-.35m-42.371.229c-.148.586-.191 1.143-.097 1.237.095.094.292-.308.439-.895.148-.586.191-1.143.097-1.237-.095-.094-.292.308-.439.895m66.652.762c.478.985.938 1.723 1.022 1.639.181-.181-1.435-3.43-1.706-3.43-.103 0 .205.806.684 1.791m31.345.109c2.229 2.983 2.574 3.403 2.574 3.137 0-.382-3.175-4.637-3.46-4.637-.129 0 .269.675.886 1.5m-29.197 4.5c.147.55.435 1.27.638 1.6.258.417.29.295.104-.4-.147-.55-.435-1.27-.638-1.6-.258-.417-.29-.295-.104.4m-70.38.215a3.854 3.854 0 00-.215 1.318c.019.367.193.136.387-.513.377-1.262.244-1.887-.172-.805m104.234 2.772c.702 1.423 1.342 2.521 1.423 2.441.179-.179-2.24-5.028-2.508-5.028-.105 0 .384 1.164 1.085 2.587M184.2 229.2c-.152.691-.193 1.341-.091 1.442.102.102.3-.389.441-1.092.333-1.667.01-1.99-.35-.35m31.068 0c.02 1.039.65 2.746.664 1.8.006-.44-.143-1.16-.332-1.6-.211-.49-.339-.568-.332-.2m33.999 1.62c.234.672.5 1.147.59 1.056.199-.198-.556-2.276-.826-2.276-.104 0 .002.549.236 1.22m-66.021 1.847c-.025.257-.162.797-.305 1.2-.201.569-.147.63.238.275.273-.251.41-.791.305-1.2-.105-.408-.212-.532-.238-.275m33.177 2.966c.013.752.182 2.087.375 2.967.271 1.23.3.952.128-1.2-.239-2.98-.541-4.042-.503-1.767m-33.977.034c-.025.367-.15.997-.276 1.4-.218.695-.207.696.227.02.251-.391.376-1.021.276-1.4-.162-.619-.185-.621-.227-.02M139 238c-.15.473-.183.95-.073 1.06.11.11.323-.187.473-.66.15-.473.183-.95.073-1.06-.11-.11-.323.187-.473.66m42.273 2.073c-.238.936-.363 1.77-.279 1.854.084.085.357-.603.606-1.527.249-.924.374-1.759.279-1.855-.096-.095-.369.592-.606 1.528m36.047 4.727c0 1.21.075 1.705.167 1.1a8.899 8.899 0 000-2.2c-.092-.605-.167-.11-.167 1.1m-80.291.229c-.148.586-.191 1.143-.097 1.237.095.094.292-.308.439-.895.148-.586.191-1.143.097-1.237-.095-.094-.292.308-.439.895m42.4 2c-.148.586-.191 1.143-.097 1.237.095.094.292-.308.439-.895.148-.586.191-1.143.097-1.237-.095-.094-.292.308-.439.895m75.2-.229c.147.55.435 1.27.638 1.6.258.417.29.295.104-.4-.147-.55-.435-1.27-.638-1.6-.258-.417-.29-.295-.104.4m-76.183 4.067c-.025.367-.15.997-.276 1.4-.218.695-.207.696.227.02.251-.391.376-1.021.276-1.4-.162-.619-.185-.621-.227-.02M134.4 254.4c-.249.924-.374 1.759-.279 1.855.096.095.369-.592.606-1.528.238-.936.363-1.77.279-1.854-.084-.085-.357.603-.606 1.527m43.246-.533c-.025.257-.162.797-.305 1.2-.201.569-.147.63.238.275.273-.251.41-.791.305-1.2-.105-.408-.212-.532-.238-.275m39.307 5.933c0 2.64.065 3.668.144 2.284.078-1.383.077-3.543-.002-4.8-.079-1.256-.143-.124-.142 2.516m-83.524-1.971c-.148.586-.191 1.143-.097 1.237.095.094.292-.308.439-.895.148-.586.191-1.143.097-1.237-.095-.094-.292.308-.439.895M176.6 258c-.152.691-.193 1.341-.091 1.442.102.102.3-.389.441-1.092.333-1.667.01-1.99-.35-.35m-.798 3.3c-.144.715-.347 1.66-.451 2.1-.147.62-.106.665.179.2.419-.684 1.002-3.6.72-3.6-.103 0-.304.585-.448 1.3m86.998 5.5c.449.88.906 1.6 1.016 1.6.11 0-.167-.72-.616-1.6-.449-.88-.906-1.6-1.016-1.6-.11 0 .167.72.616 1.6m-45.56 3.233c.022 1.192.18 2.617.352 3.167.177.564.222-.307.105-2-.246-3.553-.514-4.236-.457-1.167m-43.44-.433c-.152.691-.193 1.341-.091 1.442.102.102.3-.389.441-1.092.333-1.667.01-1.99-.35-.35m-43.951 1.015a3.854 3.854 0 00-.215 1.318c.019.367.193.136.387-.513.377-1.262.244-1.887-.172-.805m43.005 3.252a8.132 8.132 0 01-.284 1.6c-.218.694-.206.695.226.021.251-.391.379-1.111.285-1.6-.172-.887-.172-.887-.227-.021m-44.225 1.562c-.148.586-.191 1.143-.097 1.237.095.094.292-.308.439-.895.148-.586.191-1.143.097-1.237-.095-.094-.292.308-.439.895m43.2 3.2c-.148.586-.191 1.143-.097 1.237.095.094.292-.308.439-.895.148-.586.191-1.143.097-1.237-.095-.094-.292.308-.439.895m-44.78 2.786a3.854 3.854 0 00-.215 1.318c.019.367.193.136.387-.513.377-1.262.244-1.887-.172-.805m146.551 1.526c1.21 1.277 2.92 2.879 3.8 3.559 1.845 1.427 1.563 1.134-2.8-2.914-2.709-2.512-2.862-2.611-1-.645m-102.746.659c-.035.55-.158 1.45-.271 2l-.206 1 .43-.985c.236-.541.358-1.441.271-2l-.158-1.015-.066 1m-45.025 2.629c-.148.586-.191 1.143-.097 1.237.095.094.292-.308.439-.895.148-.586.191-1.143.097-1.237-.095-.094-.292.308-.439.895m192.771-.658c-.535.21-.117.301 1.259.272 1.132-.024 1.976-.178 1.876-.343-.232-.382-2.091-.34-3.135.071m-98.594 1.462c.003.422.189 1.037.412 1.367.297.438.334.276.138-.6-.329-1.471-.558-1.79-.55-.767M314 287.4c-.55.314-.82.572-.6.572.22 0 .85-.258 1.4-.572.55-.314.82-.572.6-.572-.22 0-.85.258-1.4.572m9.58 1.11c.195 1.648.203 1.657.339.339.077-.743-.013-1.503-.199-1.689-.187-.187-.249.421-.14 1.35m-153.526-.31c-.035.44-.165 1.25-.287 1.8-.192.863-.16.903.231.29.249-.391.379-1.201.288-1.8-.108-.711-.189-.811-.232-.29m109.365-.169c.254.41 2.739 1.745 4.486 2.409 1.621.616.995.187-2.013-1.379-1.489-.775-2.602-1.239-2.473-1.03m-154.37.984a3.854 3.854 0 00-.215 1.318c.019.367.193.136.387-.513.377-1.262.244-1.887-.172-.805m95.807.585c0 .33.155.96.344 1.4.217.504.344.578.344.2 0-.33-.155-.96-.344-1.4-.217-.504-.344-.578-.344-.2m80.944 1.619c-.558.252-.315.288.8.119.88-.134 1.675-.31 1.767-.391.343-.303-1.799-.076-2.567.272m20.007 1.505c-.869 1.019-.967 1.258-.359.878.805-.502 1.941-1.976 1.68-2.179-.071-.054-.665.531-1.321 1.301m-197.543-.424c-.495 1.825-.656 3.068-.325 2.5.395-.675.929-3.2.678-3.2-.09 0-.248.315-.353.7m167.636-.405c1.155.081 3.045.081 4.2 0 1.155-.081.21-.147-2.1-.147s-3.255.066-2.1.147m-122.878 2.327c-.15.803-.194 1.54-.096 1.638.098.097.301-.479.452-1.282.15-.803.194-1.54.096-1.638-.098-.097-.301.479-.452 1.282m53.778 1.127c0 .432 1.589 3.451 1.816 3.451.11 0-.186-.765-.657-1.7-.927-1.839-1.159-2.189-1.159-1.751m95.4.886l-1.2 1.031 1.3-.86c.715-.473 1.3-.938 1.3-1.033 0-.3-.169-.195-1.4.862m-195.151.78a3.854 3.854 0 00-.215 1.318c.019.367.193.136.387-.513.377-1.262.244-1.887-.172-.805M312.6 299.79c-.88.542-1.475.991-1.323.998.347.015 3.123-1.609 3.123-1.828 0-.26-.124-.203-1.8.83m-144.536.86a32.953 32.953 0 01-.263 2.6l-.198 1.35.421-1.342c.231-.738.349-1.908.262-2.6l-.158-1.258-.064 1.25m58.123 1.325c.334.646.789 1.286 1.011 1.424.222.137.025-.392-.437-1.175-1.013-1.717-1.426-1.896-.574-.249M121.456 303.5c-.109.385-.295 1.69-.412 2.9-.167 1.709-.139 1.887.123.8.693-2.875.936-5.987.289-3.7m184.744.1c-.66.437-1.02.792-.8.788.401-.006 2.576-1.565 2.2-1.576-.11-.004-.74.351-1.4.788m-77.119 2.587c.396.544.885.994 1.089 1 .203.007-.053-.437-.57-.987-1.199-1.277-1.443-1.282-.519-.013m-62.011 1.97c-.159 1.296-.209 2.437-.11 2.536.266.266.743-3.275.559-4.146-.087-.411-.289.313-.449 1.61m133.23-1.128c-1.495.811-1.404 1.149.1.371.66-.341 1.2-.706 1.2-.81 0-.258-.043-.243-1.3.439m-68.3 2.327c1.917 2.042 6.703 5.674 7.036 5.341.11-.11-.622-.682-1.627-1.271-1.005-.589-3.038-2.177-4.518-3.529-2.188-1.999-2.355-2.1-.891-.541M120.257 311.9c-.313 1.893-.282 4.099.071 4.977.15.372.301-.933.336-2.9.069-3.897-.026-4.383-.407-2.077m46.203 2.567c-.033.587-.164 1.397-.29 1.8-.218.693-.205.694.225.023.251-.391.382-1.201.291-1.8l-.166-1.09-.06 1.067M273.6 317.2c-.824.264-.859.326-.2.354.44.019 1.07-.141 1.4-.354.701-.453.214-.453-1.2 0m-26.6.75c.44.185 1.52.449 2.4.587 1.015.158 1.308.127.8-.087-.44-.185-1.52-.449-2.4-.587-1.015-.158-1.308-.127-.8.087m20.2.45c-1.35.284-1.357.295-.2.3.66.003 1.74-.132 2.4-.3 1.66-.422-.193-.422-2.2 0m-146.4.236c0 .697 1.59 2.166 2.316 2.139.528-.02.489-.105-.173-.372-.472-.19-1.147-.759-1.5-1.263-.354-.505-.643-.732-.643-.504m133.401.634c2.004.356 5.447.354 7.799-.003 1.127-.171-.295-.274-3.799-.277-3.426-.002-4.979.107-4 .28M157.6 320c-1.384.291-1.386.295-.2.341.66.026 1.47-.128 1.8-.341.666-.43.445-.43-1.6 0m-32.7 1.087a8.899 8.899 0 002.2 0c.605-.092.11-.167-1.1-.167-1.21 0-1.705.075-1.1.167m10.6.012c3.135.068 8.265.068 11.4 0 3.135-.067.57-.123-5.7-.123-6.27 0-8.835.056-5.7.123" fill="#fcb271"/><path d="M222.9 75.476c.385.1 1.015.1 1.4 0 .385-.101.07-.183-.7-.183s-1.085.082-.7.183m4.8.011a8.899 8.899 0 002.2 0c.605-.092.11-.167-1.1-.167-1.21 0-1.705.075-1.1.167m37.601 44.313c.004.88.086 1.193.182.695.096-.497.092-1.217-.008-1.6-.1-.382-.179.025-.174.905M192.893 190c0 .77.082 1.085.183.7.1-.385.1-1.015 0-1.4-.101-.385-.183-.07-.183.7m7.612 5.887c.609.092 1.509.09 2-.005.492-.095-.005-.171-1.105-.168-1.1.003-1.503.081-.895.173m32.695 13.038c0 .069.585.654 1.3 1.3l1.3 1.175-1.175-1.3c-1.095-1.212-1.425-1.484-1.425-1.175M217.32 248.8c0 1.21.075 1.705.167 1.1a8.899 8.899 0 000-2.2c-.092-.605-.167-.11-.167 1.1m-88.82 71.876c.385.1 1.015.1 1.4 0 .385-.101.07-.183-.7-.183s-1.085.082-.7.183" fill="#fcc48c"/><path d="M212.118 75.898c1.715.075 4.415.074 6-.001 1.585-.076.182-.138-3.118-.137-3.3.001-4.597.062-2.882.138m23.382-.003c1.155.081 3.045.081 4.2 0 1.155-.081.21-.147-2.1-.147s-3.255.066-2.1.147m-30 .387a5.661 5.661 0 001.8 0c.495-.095.09-.173-.9-.173s-1.395.078-.9.173m37.605.001c.497.096 1.217.092 1.6-.008.382-.1-.025-.179-.905-.174-.88.004-1.193.086-.695.182m-44.4.4c.497.096 1.217.092 1.6-.008.382-.1-.025-.179-.905-.174-.88.004-1.193.086-.695.182m50.195-.007c.385.1 1.015.1 1.4 0 .385-.101.07-.183-.7-.183s-1.085.082-.7.183m-53.8.406a5.661 5.661 0 001.8 0c.495-.095.09-.173-.9-.173s-1.395.078-.9.173m-8.795.801c.497.096 1.217.092 1.6-.008.382-.1-.025-.179-.905-.174-.88.004-1.193.086-.695.182m-6.4.8c.497.096 1.217.092 1.6-.008.382-.1-.025-.179-.905-.174-.88.004-1.193.086-.695.182m-7.505.917c-.804.257-.843.323-.2.332.44.006 1.16-.143 1.6-.332 1.019-.438-.032-.438-1.4 0m-18.8 3.6c-.824.264-.859.326-.2.354.44.019 1.07-.141 1.4-.354.701-.453.214-.453-1.2 0m82.9.676c.385.1 1.015.1 1.4 0 .385-.101.07-.183-.7-.183s-1.085.082-.7.183m-4.607 1.938c-.821.558-1.493 1.101-1.493 1.206 0 .105.72-.285 1.6-.867 1.397-.925 1.87-1.353 1.493-1.353-.059 0-.779.456-1.6 1.014m-41.36.479c1.156.12 1.476.305 1.304.754-.128.335-.055.488.168.35 1.067-.659.345-1.395-1.305-1.33l-1.7.067 1.533.159m-5.026.397c.719.089 1.799.087 2.4-.004s.013-.164-1.307-.162c-1.32.002-1.812.077-1.093.166m-7.807.786c.385.1 1.015.1 1.4 0 .385-.101.07-.183-.7-.183s-1.085.082-.7.183m-5.5.924c-.504.217-.578.344-.2.344.33 0 .96-.155 1.4-.344.504-.217.578-.344.2-.344-.33 0-.96.155-1.4.344m18.753.1c-1.377 2.336-1.467 2.535-.766 1.7.813-.968 1.513-2.2 1.251-2.2-.105 0-.323.225-.485.5m-22.353.7c-.504.217-.578.344-.2.344.33 0 .96-.155 1.4-.344.504-.217.578-.344.2-.344-.33 0-.96.155-1.4.344m120.8.252l1.999 1.749 1.599 1.399-1.199-1.334c-.659-.734-1.559-1.521-1.999-1.749-.44-.228-.62-.257-.4-.065M254.6 93.2c.859.88 1.652 1.6 1.762 1.6.11 0-.503-.72-1.362-1.6-.859-.88-1.652-1.6-1.762-1.6-.11 0 .503.72 1.362 1.6m-70 5.6c-.341.66-.531 1.2-.421 1.2.11 0 .48-.54.821-1.2.341-.66.531-1.2.421-1.2-.11 0-.48.54-.821 1.2m-62.811 16.5L119 118.2l2.9-2.789c2.694-2.591 3.083-3.011 2.789-3.011-.061 0-1.366 1.305-2.9 2.9m143.539.7c0 1.43.073 2.015.161 1.3.089-.715.089-1.885 0-2.6-.088-.715-.161-.13-.161 1.3m41.586 3.8c.003 1.1.081 1.503.173.895.092-.609.09-1.509-.005-2-.095-.492-.171.005-.168 1.105m-41.583 4c.002 1.54.074 2.121.161 1.291.087-.83.085-2.09-.003-2.8-.089-.71-.16-.031-.158 1.509m-150.953-.7L113 124.6l1.5-1.378c.825-.759 1.5-1.434 1.5-1.5 0-.306-.338-.018-1.622 1.378m192.923.3c.004.88.086 1.193.182.695.096-.497.092-1.217-.008-1.6-.1-.382-.179.025-.174.905m-235.92 1.1l-1.581 1.7 1.7-1.581c1.581-1.471 1.884-1.819 1.581-1.819-.065 0-.83.765-1.7 1.7m235.92 4.5c.004.88.086 1.193.182.695.096-.497.092-1.217-.008-1.6-.1-.382-.179.025-.174.905M66.4 130.8c-.47.66-.764 1.2-.654 1.2.11 0 .584-.54 1.054-1.2.47-.66.764-1.2.654-1.2-.11 0-.584.54-1.054 1.2m104.629-.171c-.148.586-.191 1.143-.097 1.237.095.094.292-.308.439-.895.148-.586.191-1.143.097-1.237-.095-.094-.292.308-.439.895m135.88 1.771c0 .99.078 1.395.173.9a5.661 5.661 0 000-1.8c-.095-.495-.173-.09-.173.9m-45.48 12.229c-.148.586-.191 1.143-.097 1.237.095.094.292-.308.439-.895.148-.586.191-1.143.097-1.237-.095-.094-.292.308-.439.895M101.328 155.2c0 1.43.073 2.015.161 1.3.089-.715.089-1.885 0-2.6-.088-.715-.161-.13-.161 1.3m155.937 1.417c-.67 1.471-.542 1.785.182.448.339-.625.541-1.211.449-1.302-.091-.092-.375.293-.631.854m-203.211 1.65a8.132 8.132 0 01-.284 1.6c-.218.694-.206.695.226.021.251-.391.379-1.111.285-1.6-.172-.887-.172-.887-.227-.021M53 163.6c-.154.91-.196 1.738-.093 1.84.103.103.306-.563.453-1.48.147-.917.188-1.745.093-1.84-.095-.096-.299.57-.453 1.48m233.786 8.7l-2.186 2.3 2.3-2.186c1.265-1.203 2.3-2.238 2.3-2.3 0-.297-.382.049-2.414 2.186m-234.649 3.1c.002 1.76.072 2.43.156 1.489.085-.94.084-2.38-.002-3.2-.086-.819-.155-.049-.154 1.711m77.741 2.479c.61.119.812.377.662.846-.184.577-.153.588.216.075.678-.943.528-1.204-.656-1.146-.909.046-.948.084-.222.225m-12.178 1.197c.385.1 1.015.1 1.4 0 .385-.101.07-.183-.7-.183s-1.085.082-.7.183m4.4 0c.385.1 1.015.1 1.4 0 .385-.101.07-.183-.7-.183s-1.085.082-.7.183m115.897 3.858c-1.651 1.356-3.451 2.795-4 3.196-.986.723-.983.723.203.04 2.102-1.212 7.826-5.936 6.949-5.736-.082.019-1.5 1.144-3.152 2.5m-44.148-.319a3.854 3.854 0 00-.215 1.318c.019.367.193.136.387-.513.377-1.262.244-1.887-.172-.805m-140.993.585c0 .33.155.96.344 1.4.217.504.344.578.344.2 0-.33-.155-.96-.344-1.4-.217-.504-.344-.578-.344-.2m140.037 4.4c0 .77.082 1.085.183.7.1-.385.1-1.015 0-1.4-.101-.385-.183-.07-.183.7m-67.325 1.7c-.488.715-2.345 2.83-4.128 4.7l-3.24 3.399 3.133-2.999c2.731-2.616 5.873-6.4 5.313-6.4-.105 0-.591.585-1.078 1.3m92.032 4.3c-.824.264-.859.326-.2.354.44.019 1.07-.141 1.4-.354.701-.453.214-.453-1.2 0m-5 1.2c-1.019.438.032.438 1.4 0 .804-.257.843-.323.2-.332-.44-.006-1.16.143-1.6.332m-16.179.821c.534.339 3.521.56 3.146.234-.092-.08-.968-.247-1.946-.373-1.151-.147-1.575-.098-1.2.139m7.879.268c.715.089 1.885.089 2.6 0 .715-.088.13-.161-1.3-.161-1.43 0-2.015.073-1.3.161m-88.3 2.766c-2.177 1.71-2.447 1.985-1.4 1.427.871-.464 3.725-2.852 3.4-2.845-.11.002-1.01.64-2 1.418m-55 .545c.859.88 1.652 1.6 1.762 1.6.11 0-.503-.72-1.362-1.6-.859-.88-1.652-1.6-1.762-1.6-.11 0 .503.72 1.362 1.6m39.8 6.8c-.824.264-.859.326-.2.354.44.019 1.07-.141 1.4-.354.701-.453.214-.453-1.2 0m90.276.9c-1.246 1.233-1.251 1.249-.095.303a322.39 322.39 0 011.599-1.3c.209-.167.251-.303.094-.303s-.876.585-1.598 1.3m-115.443.044c.092.079.707.264 1.367.412.876.196 1.038.159.6-.138-.54-.365-2.368-.62-1.967-.274m20.567.256c-.504.217-.578.344-.2.344.33 0 .96-.155 1.4-.344.504-.217.578-.344.2-.344-.33 0-.96.155-1.4.344m-15 .842c1.739.289 11.811.434 11 .159-.22-.075-3.19-.209-6.6-.297-3.471-.091-5.408-.03-4.4.138m125.397 2.759c1.896 2.217 1.923 2.241 1.489 1.399-.227-.44-.924-1.249-1.549-1.799l-1.137-.998 1.197 1.398m33.232 5.237c.644.791 1.252 1.37 1.35 1.287.099-.083-.428-.73-1.17-1.438l-1.351-1.287 1.171 1.438m-52.779.412c-.333 1.667-.01 1.99.35.35.152-.691.193-1.341.091-1.442-.102-.102-.3.389-.441 1.092m60.978 12.15c0 .22.258.85.572 1.4.314.55.572.82.572.6 0-.22-.258-.85-.572-1.4-.314-.55-.572-.82-.572-.6m-31.766 3.6c.134.88.31 1.675.391 1.767.303.343.076-1.799-.272-2.567-.252-.558-.288-.315-.119.8m1.058 7c0 1.21.075 1.705.167 1.1a8.899 8.899 0 000-2.2c-.092-.605-.167-.11-.167 1.1m-36.691 1.829c-.148.586-.191 1.143-.097 1.237.095.094.292-.308.439-.895.148-.586.191-1.143.097-1.237-.095-.094-.292.308-.439.895m-2 7.6c-.148.586-.191 1.143-.097 1.237.095.094.292-.308.439-.895.148-.586.191-1.143.097-1.237-.095-.094-.292.308-.439.895m38.739 9.971c0 4.4.058 6.255.13 4.121.072-2.133.072-5.733.001-8-.072-2.266-.131-.521-.131 3.879m-83.139-2.371c-.148.586-.191 1.143-.097 1.237.095.094.292-.308.439-.895.148-.586.191-1.143.097-1.237-.095-.094-.292.308-.439.895m41.6 3.6c-.148.586-.191 1.143-.097 1.237.095.094.292-.308.439-.895.148-.586.191-1.143.097-1.237-.095-.094-.292.308-.439.895m-44.4 6.4c-.148.586-.191 1.143-.097 1.237.095.094.292-.308.439-.895.148-.586.191-1.143.097-1.237-.095-.094-.292.308-.439.895m86.264 4.571c0 .77.082 1.085.183.7.1-.385.1-1.015 0-1.4-.101-.385-.183-.07-.183.7m.4 3.6c0 .77.082 1.085.183.7.1-.385.1-1.015 0-1.4-.101-.385-.183-.07-.183.7m51.071 3.933c.216.403.707.988 1.091 1.3.432.351.335.071-.254-.733-1.05-1.435-1.444-1.702-.837-.567M218.856 280c0 .33.155.96.344 1.4.217.504.344.578.344.2 0-.33-.155-.96-.344-1.4-.217-.504-.344-.578-.344-.2m52.344.91c0 .061 1.395 1.456 3.1 3.1l3.1 2.99-2.99-3.1c-2.777-2.879-3.21-3.283-3.21-2.99m-145.351 6.505a3.854 3.854 0 00-.215 1.318c.019.367.193.136.387-.513.377-1.262.244-1.887-.172-.805m152.118-.07c.533.656 2.033 1.648 2.033 1.344 0-.076-.585-.567-1.3-1.09-.804-.589-1.084-.686-.733-.254m-57.111 1.055c0 .33.155.96.344 1.4.217.504.344.578.344.2 0-.33-.155-.96-.344-1.4-.217-.504-.344-.578-.344-.2m-51.563 2.8c0 .77.082 1.085.183.7.1-.385.1-1.015 0-1.4-.101-.385-.183-.07-.183.7m136.307-.4c-.824.264-.859.326-.2.354.44.019 1.07-.141 1.4-.354.701-.453.214-.453-1.2 0m15.578 2.3l-1.378 1.5 1.5-1.378c1.396-1.284 1.684-1.622 1.378-1.622-.066 0-.741.675-1.5 1.5m-26.478-.811c.715.089 1.885.089 2.6 0 .715-.088.13-.161-1.3-.161-1.43 0-2.015.073-1.3.161m-170.871 3.14c-.148.586-.191 1.143-.097 1.237.095.094.292-.308.439-.895.148-.586.191-1.143.097-1.237-.095-.094-.292.308-.439.895m193.871.611c-.935.662-1.7 1.293-1.7 1.401 0 .109.81-.36 1.8-1.041.99-.681 1.8-1.32 1.8-1.419 0-.276-.076-.233-1.9 1.059m-4.6 2.989c-1.495.811-1.404 1.149.1.371.66-.341 1.2-.706 1.2-.81 0-.258-.043-.243-1.3.439m-87.5 1.124c0 .389 2.74 4.647 2.99 4.647.11 0-.454-1.035-1.253-2.3-1.671-2.644-1.737-2.733-1.737-2.347m-103.771 3.276c-.148.586-.191 1.143-.097 1.237.095.094.292-.308.439-.895.148-.586.191-1.143.097-1.237-.095-.094-.292.308-.439.895m45.464.571c0 .77.082 1.085.183.7.1-.385.1-1.015 0-1.4-.101-.385-.183-.07-.183.7m65.307 5.6c.859.88 1.652 1.6 1.762 1.6.11 0-.503-.72-1.362-1.6-.859-.88-1.652-1.6-1.762-1.6-.11 0 .503.72 1.362 1.6m-111.707.4c0 .77.082 1.085.183.7.1-.385.1-1.015 0-1.4-.101-.385-.183-.07-.183.7m45.621 1c.003 1.1.081 1.503.173.895.092-.609.09-1.509-.005-2-.095-.492-.171.005-.168 1.105m123.186.612c-1.339.539-1.089.812.3.328.66-.23 1.2-.491 1.2-.579 0-.237-.487-.156-1.5.251m-168.864 5.866c-.098 2.385 3.873 4.006 7.49 3.057 1.043-.273.61-.346-2.038-.341-3.739.007-4.47-.333-5.054-2.344-.278-.959-.37-1.046-.398-.372M247 317.6c.44.189 1.07.344 1.4.344.378 0 .304-.127-.2-.344-.44-.189-1.07-.344-1.4-.344-.378 0-.304.127.2.344m19.1.676c.385.1 1.015.1 1.4 0 .385-.101.07-.183-.7-.183s-1.085.082-.7.183m-2.8.4c.385.1 1.015.1 1.4 0 .385-.101.07-.183-.7-.183s-1.085.082-.7.183m-5.8.406a5.661 5.661 0 001.8 0c.495-.095.09-.173-.9-.173s-1.395.078-.9.173m-104.4 1.2a5.661 5.661 0 001.8 0c.495-.095.09-.173-.9-.173s-1.395.078-.9.173m-20.787.413c1.163.081 2.963.081 4-.002 1.038-.082.087-.148-2.113-.147-2.2.001-3.049.068-1.887.149m16.394-.005c.719.089 1.799.087 2.4-.004s.013-.164-1.307-.162c-1.32.002-1.812.077-1.093.166" fill="#fcc494"/></g></svg>